<svg xmlns="http://www.w3.org/2000/svg" xmlns:xlink="http://www.w3.org/1999/xlink" width="282" height="374" viewBox="0 0 282 374">
  <defs>
    <linearGradient id="linear-gradient" x1="0.516" y1="0.071" x2="0.953" y2="0.96" gradientUnits="objectBoundingBox">
      <stop offset="0" stop-color="#ede5e3"/>
      <stop offset="1" stop-color="#26211b"/>
    </linearGradient>
    <filter id="BROADERCOM_4533DHFGSF755Y7F_YF4673_4637-44_B6_Y_" x="87" y="169" width="38" height="53" filterUnits="userSpaceOnUse">
      <feOffset dy="3" input="SourceAlpha"/>
      <feGaussianBlur stdDeviation="3" result="blur"/>
      <feFlood flood-opacity="0.161"/>
      <feComposite operator="in" in2="blur"/>
      <feComposite in="SourceGraphic"/>
    </filter>
  </defs>
  <g id="Background" transform="translate(-263 -221)">
    <rect id="Fake_raspberry" data-name="Fake raspberry" width="282" height="374" rx="12" transform="translate(263 221)" fill="#2a7061"/>
    <g id="Buchi_per_viti" data-name="Buchi per viti">
      <g id="Ellipse_3" data-name="Ellipse 3" transform="translate(266 225)" fill="#fff" stroke="#c6aa4a" stroke-width="4">
        <circle cx="10.5" cy="10.5" r="10.5" stroke="none"/>
        <circle cx="10.5" cy="10.5" r="8.5" fill="none"/>
      </g>
      <g id="Ellipse_4" data-name="Ellipse 4" transform="translate(266 570)" fill="#fff" stroke="#c6aa4a" stroke-width="4">
        <circle cx="10.5" cy="10.5" r="10.5" stroke="none"/>
        <circle cx="10.5" cy="10.5" r="8.5" fill="none"/>
      </g>
      <g id="Ellipse_5" data-name="Ellipse 5" transform="translate(520 225)" fill="#fff" stroke="#c6aa4a" stroke-width="4">
        <circle cx="10.5" cy="10.5" r="10.5" stroke="none"/>
        <circle cx="10.5" cy="10.5" r="8.5" fill="none"/>
      </g>
      <g id="Ellipse_6" data-name="Ellipse 6" transform="translate(520 570)" fill="#fff" stroke="#c6aa4a" stroke-width="4">
        <circle cx="10.5" cy="10.5" r="10.5" stroke="none"/>
        <circle cx="10.5" cy="10.5" r="8.5" fill="none"/>
      </g>
    </g>
    <g id="raspberry-pi" transform="translate(455.507 435.424) rotate(-90)">
      <path id="Path_4" data-name="Path 4" d="M45.421,28.388l-.459-.792c.014-5.669-2.612-7.976-5.683-9.726.931-.25,1.876-.445,2.154-1.612,1.6-.4,1.931-1.153,2.084-1.931.417-.278,1.806-1.056,1.653-2.4a1.978,1.978,0,0,0,.987-2.209c.848-.917,1.056-1.667.709-2.362a1.782,1.782,0,0,0,.139-2.557c.75-1.362.083-2.835-2.029-2.584-.848-1.237-2.668-.959-2.96-.959C41.7.862,41.281.514,40,.681a2.439,2.439,0,0,0-2.723-.25c-1.139-.889-1.89-.167-2.765.1-1.376-.445-1.7.153-2.362.417-1.5-.32-1.959.361-2.682,1.084l-.848-.014c-2.251,1.306-3.376,4-3.779,5.377-.4-1.376-1.528-4.071-3.793-5.377l-.848.014c-.723-.723-1.181-1.4-2.682-1.084C16.84.7,16.534.084,15.158.528A5.6,5.6,0,0,0,13.463,0a1.8,1.8,0,0,0-1.056.431,2.464,2.464,0,0,0-2.723.25c-1.278-.153-1.709.167-2.015.57-.278,0-2.112-.278-2.96.959C2.6,1.96,1.944,3.432,2.695,4.794a1.771,1.771,0,0,0,.139,2.557c-.347.695-.139,1.459.709,2.362a2.015,2.015,0,0,0,.987,2.209c-.153,1.348,1.251,2.126,1.653,2.4.153.778.486,1.515,2.084,1.931.264,1.153,1.223,1.362,2.154,1.612C7.35,19.634,4.737,21.94,4.737,27.6l-.459.792A9.5,9.5,0,0,0,2.556,42.755,25.593,25.593,0,0,0,3.9,47.076a10.589,10.589,0,0,0,6.67,8.406,22.725,22.725,0,0,0,6.378,3.571A10.7,10.7,0,0,0,24.8,62.527h.125a10.63,10.63,0,0,0,7.837-3.474,22.2,22.2,0,0,0,6.378-3.571,10.541,10.541,0,0,0,6.67-8.406,26.926,26.926,0,0,0,1.348-4.321,9.528,9.528,0,0,0-1.737-14.367Zm-2.709-.973c-.181,2.279-12.075-7.948-10.018-8.3C38.266,18.2,42.893,21.468,42.712,27.415ZM37.46,38.781c-2.987,1.931-7.295.681-9.615-2.779s-1.779-7.837,1.209-9.768,7.295-.681,9.615,2.779,1.779,7.837-1.209,9.768Zm-8.3-35.2a1.8,1.8,0,0,0,.347.931A17.185,17.185,0,0,1,31.568,2.4c0,.4-.208.834.306,1.153a6.121,6.121,0,0,1,1.89-1.626c-.389.681-.069.889.153,1.167a7.064,7.064,0,0,1,2.362-1.5c-.32.375-.75.75-.292,1.195a6.894,6.894,0,0,1,2.821-1.084c-.347.375-1.056.764-.625,1.153a11.1,11.1,0,0,1,2.7-.653c-.472.389-.861.764-.472,1.07a5.952,5.952,0,0,1,3.224-.32l-.736.75a22.666,22.666,0,0,0,2.918.1,5.844,5.844,0,0,0-1.139,2.223c.125.125.709.056,1.264,0-.57,1.209-1.556,1.5-1.792,2.029a1.457,1.457,0,0,0,1.362.014,8.78,8.78,0,0,1-1.959,2.112c.167.125.472.195,1.181.111a11.448,11.448,0,0,1-2.293,1.834c.153.181.709.181,1.223.195a11.758,11.758,0,0,1-2.862,1.737,1.745,1.745,0,0,0,1.223.25,9.977,9.977,0,0,1-2.973,1.223,1.047,1.047,0,0,0,.861.5c-1.153.653-2.835.347-3.293.681a1.361,1.361,0,0,0,.82.709c-1.876.111-6.989-.069-7.99-3.946,1.917-2.112,5.419-4.571,11.436-7.642a39.376,39.376,0,0,0-12.45,6.531c-4.155-1.959-1.292-6.85.736-8.782Zm-4.2,13.992c2.96-.042,6.6,2.168,6.586,4.238-.014,1.834-2.571,3.307-6.572,3.279-3.918-.056-6.558-1.862-6.544-3.64.014-1.459,3.21-3.974,6.531-3.877Zm-15.02-1.57a1.06,1.06,0,0,0,.861-.5,9.626,9.626,0,0,1-2.974-1.223,1.745,1.745,0,0,0,1.223-.25A12.028,12.028,0,0,1,6.2,12.3c.514-.014,1.056,0,1.223-.195a10.98,10.98,0,0,1-2.293-1.834c.709.083,1.014.014,1.181-.111A8.78,8.78,0,0,1,4.348,8.046,1.457,1.457,0,0,0,5.71,8.032C5.474,7.518,4.487,7.212,3.917,6c.556.056,1.153.125,1.264,0A5.741,5.741,0,0,0,4.043,3.78a20.173,20.173,0,0,0,2.918-.1l-.736-.75a5.967,5.967,0,0,1,3.224.32c.389-.306-.014-.681-.472-1.07a12.761,12.761,0,0,1,2.7.653c.431-.375-.278-.764-.625-1.153a6.893,6.893,0,0,1,2.821,1.084c.459-.445.028-.82-.292-1.195a6.594,6.594,0,0,1,2.362,1.5c.208-.278.542-.486.153-1.167a5.8,5.8,0,0,1,1.89,1.626c.5-.32.306-.75.306-1.153a18.258,18.258,0,0,1,2.056,2.112c.139-.1.25-.417.347-.931,2.029,1.945,4.891,6.822.736,8.768A39.376,39.376,0,0,0,8.975,5.795c6.016,3.057,9.518,5.53,11.436,7.642-.973,3.877-6.1,4.057-7.99,3.946a1.406,1.406,0,0,0,.82-.709c-.459-.32-2.126-.028-3.293-.667Zm7.337,2.946c2.056.347-9.838,10.56-10.018,8.3-.181-5.947,4.46-9.226,10.018-8.3ZM4.668,41.754c-2.89-2.293-3.821-9,1.542-12.005C9.434,28.9,7.294,42.922,4.668,41.754Zm11.1,11.991c-1.626.959-5.586.57-8.406-3.4C5.474,46.993,5.71,43.6,7.044,42.6c1.987-1.195,5.072.417,7.434,3.126C16.548,48.174,17.493,52.481,15.77,53.746ZM12.546,39.128C9.559,37.2,9.017,32.834,11.337,29.36s6.628-4.71,9.615-2.779,3.529,6.294,1.209,9.768S15.534,41.06,12.546,39.128ZM25.024,60.554c-3.585.153-7.1-2.89-7.059-3.946-.056-1.556,4.377-2.765,7.239-2.682C28.095,53.8,32,54.843,32,56.233c.07,1.348-3.5,4.391-6.975,4.321Zm7.2-15.243c.028,3.627-3.2,6.572-7.184,6.586s-7.225-2.9-7.253-6.517v-.069c-.028-3.627,3.2-6.572,7.184-6.586s7.225,2.9,7.253,6.517Zm10.032,5.211c-3.085,4.224-7.281,4.377-8.823,3.21-1.626-1.515-.389-6.211,1.848-8.8,2.557-2.848,5.28-4.7,7.2-3.251,1.264,1.264,2.029,6-.222,8.837Zm2.793-8.934C42.42,42.741,40.28,28.735,43.5,29.583,48.867,32.6,47.95,39.309,45.046,41.588Z" transform="translate(142.767 -112.854) rotate(90)" fill="#fff"/>
    </g>
    <g id="Processor" transform="translate(-45 53)">
      <g id="Rectangle_3" data-name="Rectangle 3" transform="translate(385 332)" fill="#0f3427" stroke="#9a634e" stroke-width="0.2">
        <rect width="55" height="55" stroke="none"/>
        <rect x="0.1" y="0.1" width="54.8" height="54.8" fill="none"/>
      </g>
      <path id="Path_1" data-name="Path 1" d="M2.75,0H50.234L53,2.75V50.161L50.24,53H2.766L0,50.141V2.75Z" transform="translate(386 333)" fill="#8e8a89"/>
      <path id="Path_2" data-name="Path 2" d="M0,0H47V47H0Z" transform="translate(389 336)" opacity="0.3" fill="url(#linear-gradient)"/>
      <path id="Path_3" data-name="Path 3" d="M1,0H42a1,1,0,0,1,1,1V42a1,1,0,0,1-1,1H1a1,1,0,0,1-1-1V1A1,1,0,0,1,1,0Z" transform="translate(391 338)" fill="#b8b1b1"/>
      <circle id="Ellipse_7" data-name="Ellipse 7" cx="0.5" cy="0.5" r="0.5" transform="translate(394 377)"/>
      <g transform="matrix(1, 0, 0, 1, 308, 168)" filter="url(#BROADERCOM_4533DHFGSF755Y7F_YF4673_4637-44_B6_Y_)">
        <text id="BROADERCOM_4533DHFGSF755Y7F_YF4673_4637-44_B6_Y_2" data-name="BROADERCOM ®
4533DHFGSF755Y7F
YF4673
4637-44 B6 Y
" transform="translate(99 210) rotate(-90)" fill="#665a5b" font-size="3.5" font-family="ArialMT, Arial"><tspan x="0" y="0">BROADERCOM ®</tspan><tspan x="0" y="4">4533DHFGSF755Y7F</tspan><tspan x="0" y="8">YF4673</tspan><tspan x="0" y="12">4637-44 B6 Y</tspan><tspan x="0" y="16"></tspan></text>
      </g>
    </g>
  </g>
</svg>
